<svg width="473" height="244" viewBox="0 0 473 244" fill="none" xmlns="http://www.w3.org/2000/svg">
<path fill-rule="evenodd" clip-rule="evenodd" d="M190.113 65.2656C194.825 65.3883 201.308 68.7155 201.308 68.7155C212.504 71.4755 234.896 77.6853 257.287 72.8554C279.056 68.7155 301.448 53.5359 323.839 49.396C346.231 44.5661 368.622 50.7759 391.013 44.5661C412.783 39.0462 435.174 21.1067 446.37 12.1369C446.37 12.1369 452.731 6.29557 457.566 3.16708C492.293 -19.3048 457.566 85.175 457.566 85.175H446.37C435.174 85.175 412.783 85.175 391.013 85.175C368.622 85.175 346.231 96.175 323.839 96.175C301.448 96.175 279.056 85.175 257.287 85.175C234.896 85.175 212.504 85.175 201.308 85.175H190.113C190.113 85.175 176.359 64.9076 190.113 65.2656Z" fill="#144552"/>
<g filter="url(#filter0_d_15_17)">
<circle cx="183.5" cy="141.675" r="93.5" fill="#3E1F47"/>
</g>
<path fill-rule="evenodd" clip-rule="evenodd" d="M0 138.441L9 135.88C18 134.173 36 130.758 54 135.88C71.5 141.856 89.5 156.369 107.5 159.783C125.5 164.052 143.5 156.369 161.5 159.783C179 164.052 197 178.564 206 186.248C206 186.248 213.056 189.117 215 193.077C216.91 196.967 215 197.175 215 197.175H206C197 197.175 179 193.077 161.5 193.077C143.5 193.077 125.5 197.175 107.5 197.175C89.5 197.175 71.5 203.675 54 203.675C36 203.675 18 197.175 9 197.175H0V138.441Z" fill="#144552"/>
<path fill-rule="evenodd" clip-rule="evenodd" d="M137.274 105.869L142.396 105.021C143.241 104.881 143.987 104.357 144.47 103.565C144.952 102.772 145.132 101.775 144.97 100.794C144.807 99.8129 144.316 98.9274 143.604 98.3325C142.891 97.7376 142.016 97.482 141.172 97.6218L123.481 100.55C123.245 100.589 123 100.551 122.775 100.44C122.55 100.329 122.353 100.149 122.207 99.9206L121.417 98.6921C121.27 98.4638 121.074 98.284 120.848 98.1728C120.623 98.0616 120.379 98.0233 120.142 98.0624L117.765 98.4558C117.554 98.4905 117.357 98.5855 117.19 98.7323C117.023 98.8791 116.893 99.073 116.811 99.2968C116.728 99.5205 116.697 99.767 116.718 100.014C116.74 100.261 116.814 100.501 116.935 100.713L120.89 107.66C121.033 107.91 121.234 108.11 121.469 108.235C121.703 108.36 121.962 108.404 122.211 108.363L127.134 107.548C127.342 107.513 127.557 107.539 127.759 107.622C127.962 107.705 128.146 107.843 128.296 108.024C128.446 108.204 128.557 108.423 128.619 108.659C128.681 108.896 128.692 109.144 128.652 109.381L128.058 112.914C128.018 113.151 128.029 113.398 128.092 113.635C128.154 113.871 128.264 114.089 128.414 114.27C128.564 114.45 128.748 114.588 128.95 114.671C129.152 114.754 129.367 114.78 129.575 114.746L132.177 114.315C132.368 114.283 132.548 114.202 132.705 114.078C132.861 113.953 132.989 113.788 133.08 113.595L136.372 106.589C136.462 106.396 136.59 106.231 136.747 106.107C136.903 105.982 137.083 105.901 137.274 105.869ZM126.909 98.4625L132.962 97.4605L129.84 94.0242C129.691 93.8601 129.512 93.7364 129.318 93.6629C129.125 93.5895 128.921 93.5683 128.723 93.601L126.324 93.9981C126.107 94.0341 125.904 94.134 125.735 94.2883C125.566 94.4426 125.436 94.646 125.357 94.8794C125.279 95.1129 125.254 95.3684 125.286 95.622C125.318 95.8755 125.405 96.1185 125.54 96.328L126.909 98.4625Z" fill="#006466"/>
<defs>
<filter id="filter0_d_15_17" x="86" y="48.175" width="195" height="195" filterUnits="userSpaceOnUse" color-interpolation-filters="sRGB">
<feFlood flood-opacity="0" result="BackgroundImageFix"/>
<feColorMatrix in="SourceAlpha" type="matrix" values="0 0 0 0 0 0 0 0 0 0 0 0 0 0 0 0 0 0 127 0" result="hardAlpha"/>
<feOffset dy="4"/>
<feGaussianBlur stdDeviation="2"/>
<feComposite in2="hardAlpha" operator="out"/>
<feColorMatrix type="matrix" values="0 0 0 0 0 0 0 0 0 0 0 0 0 0 0 0 0 0 0.25 0"/>
<feBlend mode="normal" in2="BackgroundImageFix" result="effect1_dropShadow_15_17"/>
<feBlend mode="normal" in="SourceGraphic" in2="effect1_dropShadow_15_17" result="shape"/>
</filter>
</defs>
</svg>
