<svg width="430" height="932" viewBox="0 0 430 932" fill="none" xmlns="http://www.w3.org/2000/svg">
<g clip-path="url(#clip0_6_18)">
<rect width="430" height="932" fill="url(#paint0_linear_6_18)"/>
<path fill-rule="evenodd" clip-rule="evenodd" d="M-276 618.006L-263.315 596.865C-250.631 577.646 -225.261 535.364 -199.892 544.974C-174.523 552.661 -149.153 610.318 -123.784 596.865C-98.4145 585.334 -73.0451 502.692 -47.6757 466.176C-24.4205 427.738 0.948897 437.348 26.3183 456.567C51.6876 477.708 77.0581 490.565 102.427 490.565C127.797 490.565 153.165 477.708 178.534 473.864C203.904 470.02 218.19 506.536 243.56 531.521C268.929 556.505 292.268 531.167 315.17 544.974C361.463 572.881 360.244 386.578 406.859 432.243C443.542 468.178 440.077 528.574 457.866 558.367C480.853 596.865 505.248 497.808 556.961 506.536C584.851 511.244 630.315 495.005 643 506.536L633.069 544.974L633.07 932H620.385C607.701 932 582.331 932 556.962 932C531.592 932 506.223 932 480.854 932C455.484 932 430.115 932 406.86 932C381.49 932 356.121 932 330.752 932C305.382 932 280.013 932 254.644 932C229.274 932 203.905 932 178.536 932C153.166 932 127.797 932 102.427 932C77.0581 932 51.6887 932 26.3193 932C0.949973 932 -24.4194 932 -49.7888 932C-73.044 932 -98.4134 932 -123.783 932C-149.152 932 -174.521 932 -199.891 932C-225.26 932 -250.63 932 -263.314 932H-275.999L-276 618.006Z" fill="#006466"/>
<path d="M113.5 591.261C47.5 613.095 -100.4 606.261 -108 610.261L-94 944.261C89.6667 947.428 459.5 954.061 469.5 955.261C479.5 956.461 473.667 690.261 469.5 591.261C469.5 591.261 397 572.592 375.5 575.261C354 577.931 341.7 606.066 292.5 610.261C237.332 614.965 179.5 569.428 113.5 591.261Z" fill="#3E1F47"/>
<path d="M120 656C37.3905 653.861 -91 640 -91 640L-104 1003H517.5V672C517.5 672 348 633.676 300.5 640C272.515 643.726 257.976 652.207 230 656C187.432 661.771 162.943 657.112 120 656Z" fill="#144552"/>
<path d="M120 757C28.1839 765.12 -108.5 733 -108.5 733V988.5H516V733C516 733 411.231 699.481 343 700C246.153 700.737 216.473 748.468 120 757Z" fill="#272640"/>
<path fill-rule="evenodd" clip-rule="evenodd" d="M190.113 151.091C194.825 151.213 201.308 154.541 201.308 154.541C212.504 157.3 234.896 163.51 257.287 158.68C279.056 154.541 301.448 139.361 323.839 135.221C346.231 130.391 368.622 136.601 391.013 130.391C412.783 124.871 435.174 106.932 446.37 97.9619C446.37 97.9619 452.731 92.1206 457.566 88.9921C492.293 66.5202 457.566 171 457.566 171H446.37C435.174 171 412.783 171 391.013 171C368.622 171 346.231 182 323.839 182C301.448 182 279.056 171 257.287 171C234.896 171 212.504 171 201.308 171H190.113C190.113 171 176.359 150.733 190.113 151.091Z" fill="#144552"/>
<g filter="url(#filter0_d_6_18)">
<circle cx="183.5" cy="227.5" r="93.5" fill="#3E1F47"/>
</g>
<path fill-rule="evenodd" clip-rule="evenodd" d="M0 224.266L9 221.705C18 219.998 36 216.583 54 221.705C71.5 227.681 89.5 242.194 107.5 245.608C125.5 249.877 143.5 242.194 161.5 245.608C179 249.877 197 264.389 206 272.073C206 272.073 213.056 274.942 215 278.902C216.91 282.792 215 283 215 283H206C197 283 179 278.902 161.5 278.902C143.5 278.902 125.5 283 107.5 283C89.5 283 71.5 289.5 54 289.5C36 289.5 18 283 9 283H0V224.266Z" fill="#144552"/>
<path d="M77.9885 710.657C81.4058 712.845 88.3833 710.141 88.3833 710.141C75.6504 692.563 70.0177 669.252 70.0177 669.252C70.0177 669.252 59.61 690.858 43.4664 705.366C43.4664 705.366 49.7195 709.477 53.5212 708.056C53.5212 708.056 48.4405 721.509 30.2603 738.032C44.2697 743.575 55.8017 738.109 55.8017 738.109L53.6914 757.961L58.9081 758.515L62.1137 758.856L67.3306 759.411L69.4408 739.558C69.4408 739.558 79.5659 747.327 94.4275 744.853C80.1268 724.877 77.9885 710.657 77.9885 710.657Z" fill="#272640"/>
<path d="M132.46 723.758C135.133 724.562 139.417 721.716 139.417 721.716C127.918 712.824 120.291 699.171 120.291 699.171C120.291 699.171 116.773 714.409 108.21 726.156C108.21 726.156 113.118 727.694 115.461 726.176C115.461 726.176 114.219 735.433 104.606 748.776C115.002 749.928 121.92 744.601 121.92 744.601L123.736 757.37L127.361 756.855L129.588 756.538L133.213 756.022L131.396 743.253C131.396 743.253 139.525 746.439 149.187 742.434C136.234 732.301 132.46 723.758 132.46 723.758Z" fill="#272640"/>
<path d="M278.185 718.148C280.888 719.459 285.841 716.983 285.841 716.983C275.03 705.323 269.024 689 269.024 689C269.024 689 263.019 705.323 252.207 716.983C252.207 716.983 257.161 719.459 259.864 718.148C259.864 718.148 257.161 728.204 245 741.468C255.809 744.381 263.918 739.572 263.918 739.572V754H267.824H270.225H274.131V739.572C274.131 739.572 282.24 744.381 293.049 741.468C280.888 728.204 278.185 718.148 278.185 718.148Z" fill="#272640"/>
<path d="M311.756 717.268C317.437 718.81 327.85 715.899 327.85 715.899C305.124 702.19 292.5 683 292.5 683C292.5 683 279.876 702.19 257.15 715.899C257.15 715.899 267.562 718.811 273.244 717.268C273.244 717.268 267.562 729.092 242 744.685C264.722 748.11 281.766 742.456 281.766 742.456V759.419H289.977H295.023H303.234V742.456C303.234 742.456 320.278 748.11 343 744.685C317.437 729.092 311.756 717.268 311.756 717.268Z" fill="#272640"/>
<path d="M342.953 613.129C345.045 614.361 349.225 612.765 349.225 612.765C341.311 602.771 337.613 589.444 337.613 589.444C337.613 589.444 331.601 601.899 322.034 610.324C322.034 610.324 325.863 612.64 328.142 611.8C328.142 611.8 325.243 619.546 314.472 629.139C323.004 632.225 329.9 629.015 329.9 629.015L328.877 640.41L332.035 640.694L333.976 640.868L337.134 641.151L338.157 629.756C338.157 629.756 344.371 634.142 353.316 632.626C344.425 621.268 342.953 613.129 342.953 613.129Z" fill="#144552"/>
<path d="M295.883 618.951C297.572 619.445 300.145 617.468 300.145 617.468C292.702 611.707 287.513 602.695 287.513 602.695C287.513 602.695 285.819 612.955 280.872 620.962C280.872 620.962 283.976 621.91 285.384 620.854C285.384 620.854 284.912 627.072 279.363 636.166C285.869 636.763 290.001 633.081 290.001 633.081L291.545 641.6L293.783 641.194L295.159 640.944L297.397 640.539L295.853 632.02C295.853 632.02 301.014 634.017 306.896 631.174C298.508 624.607 295.883 618.951 295.883 618.951Z" fill="#144552"/>
<path d="M383.205 626.944C384.637 627.734 387.371 626.464 387.371 626.464C381.789 619.731 378.912 610.507 378.912 610.507C378.912 610.507 375.295 619.467 369.186 625.725C369.186 625.725 371.808 627.213 373.299 626.542C373.299 626.542 371.61 632.085 364.735 639.206C370.514 641.066 375.007 638.565 375.007 638.565L374.68 646.602L376.792 646.688L378.09 646.741L380.202 646.827L380.528 638.789C380.528 638.789 384.804 641.647 390.714 640.261C384.439 632.606 383.205 626.944 383.205 626.944Z" fill="#144552"/>
<path d="M117.079 660.076C119.611 661.024 124.25 659.234 124.25 659.234C114.124 650.803 108.5 639 108.5 639C108.5 639 102.875 650.803 92.7499 659.234C92.7499 659.234 97.3892 661.025 99.9207 660.076C99.9207 660.076 97.3892 667.348 86 676.938C96.1235 679.045 103.717 675.567 103.717 675.567V686H107.376H109.624H113.283V675.567C113.283 675.567 120.876 679.045 131 676.938C119.611 667.348 117.079 660.076 117.079 660.076Z" fill="#144552"/>
<path d="M128.957 661.25C130.419 661.981 133.1 660.601 133.1 660.601C127.25 654.1 124 645 124 645C124 645 120.75 654.1 114.9 660.601C114.9 660.601 117.58 661.981 119.043 661.25C119.043 661.25 117.58 666.857 111 674.251C116.849 675.875 121.237 673.194 121.237 673.194V681.238H123.351H124.649H126.763V673.194C126.763 673.194 131.151 675.875 137 674.251C130.419 666.857 128.957 661.25 128.957 661.25Z" fill="#144552"/>
<path d="M77.4134 578.387C79.2151 579.022 82.2014 577.156 82.2014 577.156C74.5781 570.637 69.7056 560.905 69.7056 560.905C69.7056 560.905 66.948 571.433 60.8356 579.387C60.8356 579.387 64.1428 580.595 65.7749 579.602C65.7749 579.602 64.7094 586.022 57.8436 595.06C64.8989 596.152 69.7382 592.629 69.7382 592.629L70.673 601.583L73.1544 601.324L74.6792 601.165L77.1608 600.906L76.226 591.952C76.226 591.952 81.6884 594.399 88.3662 591.874C79.7817 584.449 77.4134 578.387 77.4134 578.387Z" fill="#3E1F47"/>
<path d="M39.9296 589.308C41.0948 590.056 43.4768 589.137 43.4768 589.137C39.1393 583.133 37.2269 575.177 37.2269 575.177C37.2269 575.177 33.6667 582.545 28.1522 587.489C28.1522 587.489 30.2842 588.894 31.582 588.411C31.582 588.411 29.8428 592.999 23.6326 598.63C28.4106 600.527 32.3477 598.666 32.3477 598.666L31.6195 605.439L33.3993 605.631L34.493 605.748L36.2729 605.94L37.0011 599.167C37.0011 599.167 40.4528 601.822 45.5249 600.984C40.6534 594.162 39.9296 589.308 39.9296 589.308Z" fill="#3E1F47"/>
<path d="M108.439 577.808C109.683 578.137 111.527 576.644 111.527 576.644C105.978 572.574 102.015 566.085 102.015 566.085C102.015 566.085 100.971 573.616 97.5061 579.562C97.5061 579.562 99.7925 580.196 100.802 579.398C100.802 579.398 100.574 583.952 96.6907 590.704C101.457 591.017 104.407 588.248 104.407 588.248L105.697 594.444L107.326 594.105L108.326 593.897L109.955 593.558L108.665 587.361C108.665 587.361 112.475 588.723 116.72 586.534C110.465 581.893 108.439 577.808 108.439 577.808Z" fill="#3E1F47"/>
<path d="M223.698 606.484C226.117 607.631 230.55 605.466 230.55 605.466C220.874 595.271 215.5 581 215.5 581C215.5 581 210.125 595.271 200.45 605.466C200.45 605.466 204.883 607.631 207.302 606.484C207.302 606.484 204.883 615.277 194 626.873C203.674 629.42 210.93 625.215 210.93 625.215V637.83H214.426H216.574H220.07V625.215C220.07 625.215 227.326 629.42 237 626.873C226.117 615.277 223.698 606.484 223.698 606.484Z" fill="#3E1F47"/>
<path d="M211.207 596.762C212.446 597.381 214.716 596.212 214.716 596.212C209.761 590.706 207.009 583 207.009 583C207.009 583 204.257 590.706 199.303 596.212C199.303 596.212 201.573 597.381 202.811 596.762C202.811 596.762 201.573 601.51 196 607.772C200.953 609.147 204.669 606.876 204.669 606.876V613.688H206.459H207.559H209.349V606.876C209.349 606.876 213.065 609.147 218.018 607.772C212.446 601.51 211.207 596.762 211.207 596.762Z" fill="#3E1F47"/>
<path d="M233.207 604.762C234.446 605.381 236.716 604.212 236.716 604.212C231.761 598.706 229.009 591 229.009 591C229.009 591 226.257 598.706 221.303 604.212C221.303 604.212 223.573 605.381 224.811 604.762C224.811 604.762 223.573 609.51 218 615.772C222.953 617.147 226.669 614.876 226.669 614.876V621.688H228.459H229.559H231.349V614.876C231.349 614.876 235.065 617.147 240.018 615.772C234.446 609.51 233.207 604.762 233.207 604.762Z" fill="#3E1F47"/>
<path d="M275.107 532.299C275.921 532.787 277.517 532.069 277.517 532.069C274.399 527.999 272.879 522.486 272.879 522.486C272.879 522.486 270.657 527.756 267.039 531.389C267.039 531.389 268.529 532.307 269.4 531.928C269.4 531.928 268.342 535.195 264.269 539.33C267.574 540.511 270.203 539.087 270.203 539.087L269.893 543.853L271.11 543.932L271.858 543.98L273.075 544.059L273.385 539.293C273.385 539.293 275.807 541.046 279.237 540.302C275.733 535.675 275.107 532.299 275.107 532.299Z" fill="#006466"/>
<path d="M296.026 524.822C297.24 525.29 299.229 523.944 299.229 523.944C294.056 519.178 290.702 512.086 290.702 512.086C290.702 512.086 288.942 519.731 284.908 525.493C284.908 525.493 287.138 526.383 288.225 525.666C288.225 525.666 287.565 530.33 283.035 536.878C287.779 537.696 290.997 535.151 290.997 535.151L291.701 541.665L293.365 541.485L294.387 541.374L296.05 541.194L295.345 534.681C295.345 534.681 299.033 536.478 303.493 534.665C297.667 529.238 296.026 524.822 296.026 524.822Z" fill="#006466"/>
<path fill-rule="evenodd" clip-rule="evenodd" d="M297.256 417.596L292.371 415.833C291.566 415.542 290.927 414.891 290.597 414.024C290.266 413.157 290.27 412.145 290.607 411.209C290.945 410.274 291.589 409.492 292.397 409.036C293.205 408.58 294.112 408.487 294.918 408.778L311.784 414.866C312.009 414.947 312.257 414.954 312.498 414.885C312.74 414.817 312.966 414.675 313.151 414.477L314.151 413.413C314.336 413.215 314.563 413.073 314.804 413.005C315.046 412.936 315.293 412.943 315.519 413.024L317.785 413.842C317.986 413.915 318.163 414.044 318.3 414.218C318.438 414.393 318.531 414.607 318.571 414.842C318.611 415.077 318.598 415.325 318.532 415.565C318.466 415.804 318.349 416.026 318.193 416.212L313.043 422.327C312.857 422.547 312.623 422.707 312.37 422.788C312.116 422.868 311.854 422.865 311.616 422.779L306.923 421.085C306.724 421.013 306.509 420.999 306.294 421.044C306.08 421.089 305.874 421.191 305.694 421.342C305.514 421.493 305.365 421.687 305.261 421.909C305.157 422.13 305.101 422.372 305.097 422.612L305.042 426.195C305.038 426.435 304.981 426.676 304.877 426.897C304.774 427.118 304.625 427.313 304.445 427.463C304.265 427.614 304.06 427.716 303.846 427.761C303.632 427.806 303.416 427.792 303.218 427.721L300.737 426.826C300.554 426.76 300.392 426.647 300.261 426.497C300.129 426.346 300.033 426.16 299.979 425.954L298.012 418.467C297.958 418.261 297.862 418.075 297.731 417.925C297.6 417.774 297.438 417.661 297.256 417.596ZM308.791 412.191L303.02 410.108L306.714 407.295C306.89 407.16 307.088 407.071 307.292 407.034C307.496 406.997 307.701 407.013 307.889 407.081L310.176 407.906C310.383 407.981 310.564 408.116 310.703 408.299C310.841 408.481 310.932 408.705 310.967 408.949C311.002 409.192 310.98 409.448 310.903 409.692C310.825 409.935 310.695 410.158 310.525 410.34L308.791 412.191Z" fill="#006466"/>
<path fill-rule="evenodd" clip-rule="evenodd" d="M137.274 191.694L142.396 190.846C143.241 190.706 143.987 190.182 144.47 189.39C144.952 188.597 145.132 187.6 144.97 186.619C144.807 185.638 144.316 184.752 143.604 184.158C142.891 183.563 142.016 183.307 141.172 183.447L123.481 186.375C123.245 186.414 123 186.376 122.775 186.265C122.55 186.154 122.353 185.974 122.207 185.746L121.417 184.517C121.27 184.289 121.074 184.109 120.848 183.998C120.623 183.887 120.379 183.848 120.142 183.887L117.765 184.281C117.554 184.316 117.357 184.411 117.19 184.557C117.023 184.704 116.893 184.898 116.811 185.122C116.728 185.346 116.697 185.592 116.718 185.839C116.74 186.086 116.814 186.326 116.935 186.538L120.89 193.485C121.033 193.735 121.234 193.935 121.469 194.06C121.703 194.185 121.962 194.229 122.211 194.188L127.134 193.373C127.342 193.338 127.557 193.364 127.759 193.447C127.962 193.53 128.146 193.668 128.296 193.849C128.446 194.029 128.557 194.248 128.619 194.484C128.681 194.721 128.692 194.969 128.652 195.206L128.058 198.739C128.018 198.976 128.029 199.223 128.092 199.46C128.154 199.696 128.264 199.914 128.414 200.095C128.564 200.275 128.748 200.413 128.95 200.496C129.152 200.579 129.367 200.605 129.575 200.571L132.177 200.14C132.368 200.109 132.548 200.027 132.705 199.903C132.861 199.778 132.989 199.613 133.08 199.42L136.372 192.414C136.462 192.221 136.59 192.056 136.747 191.932C136.903 191.807 137.083 191.726 137.274 191.694ZM126.909 184.288L132.962 183.285L129.84 179.849C129.691 179.685 129.512 179.561 129.318 179.488C129.125 179.414 128.921 179.393 128.723 179.426L126.324 179.823C126.107 179.859 125.904 179.959 125.735 180.113C125.566 180.268 125.436 180.471 125.357 180.704C125.279 180.938 125.254 181.193 125.286 181.447C125.318 181.7 125.405 181.944 125.54 182.153L126.909 184.288Z" fill="#006466"/>
</g>
<defs>
<filter id="filter0_d_6_18" x="86" y="134" width="195" height="195" filterUnits="userSpaceOnUse" color-interpolation-filters="sRGB">
<feFlood flood-opacity="0" result="BackgroundImageFix"/>
<feColorMatrix in="SourceAlpha" type="matrix" values="0 0 0 0 0 0 0 0 0 0 0 0 0 0 0 0 0 0 127 0" result="hardAlpha"/>
<feOffset dy="4"/>
<feGaussianBlur stdDeviation="2"/>
<feComposite in2="hardAlpha" operator="out"/>
<feColorMatrix type="matrix" values="0 0 0 0 0 0 0 0 0 0 0 0 0 0 0 0 0 0 0.25 0"/>
<feBlend mode="normal" in2="BackgroundImageFix" result="effect1_dropShadow_6_18"/>
<feBlend mode="normal" in="SourceGraphic" in2="effect1_dropShadow_6_18" result="shape"/>
</filter>
<linearGradient id="paint0_linear_6_18" x1="215" y1="-124.5" x2="215" y2="623" gradientUnits="userSpaceOnUse">
<stop offset="0.164029" stop-color="#272640"/>
<stop offset="0.40134" stop-color="#006466"/>
<stop offset="0.968572" stop-color="#3E1F47"/>
</linearGradient>
<clipPath id="clip0_6_18">
<rect width="430" height="932" fill="white"/>
</clipPath>
</defs>
</svg>
