<svg width="124" height="120" viewBox="0 0 124 120" fill="none" xmlns="http://www.w3.org/2000/svg">
<path d="M116.617 70.5C116.617 72.9423 115.096 75.311 112.248 77.5029C109.403 79.6921 105.271 81.6745 100.143 83.3438C89.8895 86.6815 75.7085 88.75 60.0333 88.75C44.3581 88.75 30.1771 86.6815 19.9235 83.3438C14.7953 81.6745 10.6633 79.6921 7.81872 77.5029C4.97057 75.311 3.45 72.9423 3.45 70.5C3.45 68.0577 4.97057 65.689 7.81872 63.4971C10.6633 61.3079 14.7953 59.3255 19.9235 57.6562C30.1771 54.3185 44.3581 52.25 60.0333 52.25C75.7085 52.25 89.8895 54.3185 100.143 57.6562C105.271 59.3255 109.403 61.3079 112.248 63.4971C115.096 65.689 116.617 68.0577 116.617 70.5Z" stroke="#B4CED4" stroke-width="0.5"/>
<path d="M64.2547 82.3537C48.8443 88.3641 34.3192 92.2896 23.2996 93.7836C17.7858 94.5311 13.178 94.6659 9.78576 94.1628C6.34974 93.6533 4.35512 92.5218 3.73459 90.9307C3.11405 89.3397 3.81588 87.1566 5.99957 84.4552C8.15542 81.7883 11.6377 78.7677 16.2016 75.5847C25.3229 69.2233 38.6702 62.278 54.0805 56.2676C69.4909 50.2572 84.0161 46.3317 95.0357 44.8377C100.55 44.0902 105.157 43.9555 108.549 44.4585C111.986 44.9681 113.98 46.0995 114.601 47.6906C115.221 49.2816 114.519 51.4648 112.336 54.1661C110.18 56.833 106.698 59.8536 102.134 63.0366C93.0124 69.398 79.6651 76.3434 64.2547 82.3537Z" stroke="#B4CED4"/>
<path d="M56.0898 70.7627C55.6318 70.871 55.1442 70.4672 55.0007 69.8606L46.1154 32.3206C45.8838 31.342 46.661 30.6406 47.3471 31.2089L84.574 62.0424C85.2601 62.6107 85.1701 63.8813 84.4314 64.0561L56.0898 70.7627Z" fill="#B4CED4" fill-opacity="0.3"/>
<path d="M57.4899 67.0773C57.0465 67.1647 56.5824 66.7803 56.4321 66.2012L51.1667 45.9065C50.9781 45.1798 51.3659 44.5108 51.9432 44.5666L53.6084 44.7275C53.7636 44.7425 53.9181 44.8105 54.0559 44.9246L56.472 46.9258C56.6601 47.0816 56.8777 47.1502 57.0838 47.1186L59.6485 46.7251C59.9731 46.6753 60.315 46.8746 60.5279 47.2377L66.1436 56.8153C66.3855 57.2277 66.7896 57.4233 67.1414 57.2981L71.7665 55.6526C72.0447 55.5536 72.3617 55.6542 72.6047 55.9185L76.5232 60.1804L77.4119 61.4194C77.8936 62.0911 77.689 63.093 77.044 63.2202L57.4899 67.0773Z" fill="#B10027"/>
<path d="M55.6252 70.0278L41.7866 101.601" stroke="#B4CED4" stroke-opacity="0.3"/>
<path d="M53.6066 111.391L29.9667 91.8107" stroke="#B4CED4" stroke-opacity="0.3" stroke-linecap="round"/>
<path d="M58.0206 12.7603L60.3229 18.4558L66.186 17.5494L61.7458 21.9759L64.0481 27.6714L59.0015 24.7116L54.5613 29.1381L55.8826 22.8823L50.8361 19.9225L56.6993 19.0161L58.0206 12.7603Z" fill="#B4CED4" fill-opacity="0.25"/>
<path d="M79.5403 40.2179L83.2944 39.7187L85.6352 32.2856L85.6146 39.4102L89.3687 38.911L85.6019 43.8134L85.5812 50.9381L83.2738 46.8433L79.5069 51.7458L81.8477 44.3126L79.5403 40.2179Z" fill="#B4CED4" fill-opacity="0.25"/>
<path d="M80.8919 19.7493L78.3008 23.9652L80.1873 33.9547L76.6995 26.5708L74.1084 30.7868L74.5438 22.0074L71.056 14.6235L74.813 16.5814L75.2484 7.80198L77.1349 17.7914L80.8919 19.7493Z" fill="#B4CED4" fill-opacity="0.25"/>
</svg>
