<svg width="122" height="74" viewBox="0 0 122 74" fill="none" xmlns="http://www.w3.org/2000/svg">
<path d="M56.8754 6.87097L59.1035 12.5665L64.7775 11.66L60.4805 16.0865L62.7085 21.782L57.8248 18.8222L53.5277 23.2487L54.8065 16.993L49.9227 14.0332L55.5967 13.1267L56.8754 6.87097Z" fill="#B10027"/>
<path d="M77.701 34.3286L81.334 33.8294L83.5993 26.3962L83.5793 33.5208L87.2124 33.0216L83.567 37.9241L83.547 45.0487L81.314 40.954L77.6687 45.8564L79.934 38.4233L77.701 34.3286Z" fill="#B10027"/>
<path d="M6.25108 49.8196C6.26648 47.3737 7.75475 45.014 10.5229 42.841C13.2885 40.6699 17.2982 38.7134 22.2705 37.0757C32.2124 33.8011 45.947 31.8192 61.1149 31.9147C76.2829 32.0103 89.9914 34.165 99.8913 37.5645C104.843 39.2647 108.827 41.2716 111.565 43.4773C114.306 45.6851 115.764 48.0634 115.749 50.5092C115.734 52.955 114.245 55.3147 111.477 57.4878C108.712 59.6588 104.702 61.6154 99.7295 63.2531C89.7876 66.5276 76.053 68.5095 60.8851 68.414C45.7171 68.3185 32.0086 66.1637 22.1087 62.7642C17.1575 61.064 13.1727 59.0571 10.4347 56.8514C7.6941 54.6437 6.23567 52.2654 6.25108 49.8196Z" stroke="#B4CED4" stroke-width="0.5"/>
<path d="M79.0089 13.8599L76.5015 18.0759L78.3271 28.0653L74.9518 20.6815L72.4443 24.8974L72.8657 16.118L69.4903 8.73417L73.1261 10.692L73.5475 1.91262L75.3731 11.9021L79.0089 13.8599Z" fill="#B10027"/>
<path d="M63.943 33.1054C79.7294 36.1502 93.6643 40.4809 103.43 45.0124C108.316 47.2798 112.133 49.5856 114.615 51.788C117.128 54.017 118.137 56.0142 117.777 57.6811C117.417 59.3479 115.66 60.8115 112.424 61.9318C109.227 63.0387 104.76 63.7468 99.3236 64.0233C88.4597 64.5759 73.8434 63.3999 58.057 60.3552C42.2706 57.3104 28.3357 52.9797 18.57 48.4482C13.6836 46.1808 9.86705 43.875 7.38461 41.6726C4.87224 39.4436 3.86262 37.4464 4.22266 35.7795C4.58271 34.1127 6.33985 32.6491 9.57567 31.5288C12.7729 30.4219 17.2404 29.7138 22.6764 29.4373C33.5403 28.8847 48.1566 30.0607 63.943 33.1054Z" stroke="#B10027"/>
<path fill-rule="evenodd" clip-rule="evenodd" d="M60.7586 45.3272L58.4405 45.8191L49.9085 63.1406L50.2656 64.3219L59.8602 72.053L61.3199 72.8184C61.5645 72.9467 61.6588 73.2489 61.5305 73.4934C61.4023 73.738 61.1001 73.8323 60.8555 73.704L34.0882 59.6672C33.8436 59.539 33.7493 59.2368 33.8776 58.9922C34.0058 58.7477 34.308 58.6534 34.5526 58.7816L35.8917 59.4838L47.701 62.9745L49.0288 62.6635L57.5068 45.4517L56.9179 43.345L48.6263 22.9088L82.2645 42.5867L60.7586 45.3272Z" fill="#B4CED4"/>
<path d="M59.1893 44.4068C58.8245 44.4547 58.4451 44.1759 58.2539 43.7194L53.1701 31.5831C52.7851 30.6641 53.3708 29.7358 54.1053 30.1008L54.5441 30.3188C54.6484 30.3707 54.7564 30.3973 54.8626 30.3973L57.7618 30.3973C58.0008 30.3973 58.2428 30.5318 58.4281 30.7676L59.8956 32.6353C60.0026 32.7715 60.1298 32.8754 60.2662 32.9381L64.5935 34.9264C64.8504 35.0445 65.068 35.3056 65.1837 35.6345L65.5697 36.7321C65.7503 37.2457 66.1669 37.5673 66.5624 37.4985L69.5436 36.9801C69.7701 36.9407 70.0121 37.0293 70.2128 37.2253L72.1741 39.1399C72.2858 39.2489 72.4115 39.3259 72.5416 39.3649L75.8373 40.3536V40.3536C76.5985 40.706 76.612 42.1202 75.8551 42.2195L59.1893 44.4068Z" fill="#B10027"/>
</svg>
