<svg width="60" height="60" viewBox="0 0 60 60" fill="none" xmlns="http://www.w3.org/2000/svg">
<path d="M56.2984 35.25C56.2984 36.4187 55.5945 37.5711 54.2317 38.6548C52.8714 39.7366 50.8877 40.7218 48.4141 41.5538C43.4696 43.217 36.6227 44.25 29.0484 44.25C21.4741 44.25 14.6272 43.217 9.68265 41.5538C7.20909 40.7218 5.22534 39.7366 3.86508 38.6548C2.50224 37.5711 1.79839 36.4187 1.79839 35.25C1.79839 34.0813 2.50224 32.9289 3.86508 31.8452C5.22534 30.7634 7.20909 29.7782 9.68265 28.9462C14.6272 27.283 21.4741 26.25 29.0484 26.25C36.6227 26.25 43.4696 27.283 48.4141 28.9462C50.8877 29.7782 52.8714 30.7634 54.2317 31.8452C55.5945 32.9289 56.2984 34.0813 56.2984 35.25Z" stroke="#B4CED4" stroke-width="0.5"/>
<path d="M31.0023 40.942C23.5595 43.9416 16.5522 45.8972 11.2465 46.6405C8.58978 47.0127 6.38805 47.0768 4.78144 46.8306C3.13528 46.5783 2.2956 46.0322 2.04542 45.3693C1.79523 44.7065 2.05533 43.7171 3.10152 42.3797C4.12257 41.0745 5.78485 39.5813 7.98393 37.9965C12.3756 34.8315 18.8138 31.3683 26.2567 28.3687C33.6995 25.369 40.7068 23.4134 46.0125 22.6701C48.6692 22.2979 50.8709 22.2339 52.4776 22.4801C54.1237 22.7323 54.9634 23.2785 55.2136 23.9413C55.4638 24.6042 55.2037 25.5936 54.1575 26.9309C53.1364 28.2361 51.4741 29.7294 49.2751 31.3142C44.8834 34.4791 38.4452 37.9424 31.0023 40.942Z" stroke="#B4CED4"/>
<path d="M27.5627 35.278C27.1097 35.3888 26.6228 34.9721 26.4808 34.3521L22.619 17.4921C22.393 16.5054 23.1521 15.8117 23.8264 16.3889L40.0064 30.2368C40.6807 30.8139 40.6017 32.0897 39.8808 32.266L27.5627 35.278Z" fill="#B4CED4" fill-opacity="0.3"/>
<path d="M28.2205 33.4565C27.7816 33.546 27.3181 33.1493 27.1694 32.5569L24.9399 23.6773C24.7566 22.9475 25.131 22.283 25.6938 22.3392L25.8184 22.3516C25.9727 22.367 26.1269 22.4373 26.2643 22.555L27.1753 23.3347C27.3628 23.4951 27.5793 23.5659 27.7832 23.5336L28.5915 23.4054C28.9133 23.3544 29.2547 23.5607 29.4666 23.9342L31.7965 28.0403C32.037 28.4641 32.4398 28.6667 32.7875 28.5389L34.4998 27.9093C34.7745 27.8083 35.0898 27.9126 35.3317 28.1845L36.9845 30.042C37.013 30.0741 37.0401 30.1085 37.0655 30.1451V30.1451C37.475 30.7351 37.3067 31.6046 36.7615 31.7157L28.2205 33.4565Z" fill="#B10027"/>
<path d="M26.9154 35.0139L20.2193 50.8004" stroke="#B4CED4" stroke-opacity="0.3"/>
<path d="M25.9387 55.6954L14.5 45.9054" stroke="#B4CED4" stroke-opacity="0.3" stroke-linecap="round"/>
<path d="M28.0745 6.38016L29.1885 9.22793L32.0255 8.77469L29.877 10.9879L30.991 13.8357L28.5491 12.3558L26.4006 14.569L27.04 11.4412L24.5981 9.96127L27.4351 9.50804L28.0745 6.38016Z" fill="#B4CED4" fill-opacity="0.25"/>
<path d="M38.4873 20.109L40.3038 19.8593L41.4364 16.1428L41.4264 19.7051L43.2429 19.4555L41.4203 21.9067L41.4103 25.469L40.2938 23.4217L38.4711 25.8729L39.6038 22.1563L38.4873 20.109Z" fill="#B4CED4" fill-opacity="0.25"/>
<path d="M39.1412 9.87464L37.8875 11.9826L38.8003 16.9773L37.1126 13.2854L35.8589 15.3934L36.0696 11.0037L34.3819 7.31176L36.1998 8.29069L36.4105 3.90099L37.3233 8.89571L39.1412 9.87464Z" fill="#B4CED4" fill-opacity="0.25"/>
</svg>
