<svg width="60" height="38" viewBox="0 0 60 38" fill="none" xmlns="http://www.w3.org/2000/svg">
<path d="M27.9486 3.51199L29.0567 6.34479L31.8788 5.89394L29.7416 8.09556L30.8497 10.9284L28.4207 9.45623L26.2835 11.6579L26.9195 8.54641L24.4905 7.07428L27.3126 6.62343L27.9486 3.51199Z" fill="#B10027"/>
<path d="M38.3066 17.1687L40.1136 16.9204L41.2403 13.2233L41.2304 16.7669L43.0373 16.5186L41.2242 18.957L41.2143 22.5006L40.1037 20.464L38.2906 22.9023L39.4173 19.2053L38.3066 17.1687Z" fill="#B10027"/>
<path d="M2.89499 24.8743C2.90231 23.7123 3.60933 22.5708 4.97162 21.5013C6.33132 20.4339 8.31062 19.4665 10.7763 18.6544C15.705 17.031 22.5221 16.0463 30.0564 16.0937C37.5907 16.1412 44.3948 17.2117 49.3027 18.897C51.7579 19.7401 53.7249 20.7324 55.071 21.8169C56.4197 22.9034 57.1123 24.0537 57.105 25.2157C57.0977 26.3777 56.3907 27.5192 55.0284 28.5886C53.6687 29.656 51.6894 30.6235 49.2237 31.4356C44.295 33.059 37.4779 34.0437 29.9436 33.9962C22.4093 33.9488 15.6052 32.8783 10.6973 31.193C8.24208 30.3499 6.27512 29.3575 4.92897 28.2731C3.58026 27.1866 2.88767 26.0362 2.89499 24.8743Z" stroke="#B4CED4" stroke-width="0.5"/>
<path d="M38.9572 6.98811L37.71 9.08501L38.618 14.0535L36.9392 10.381L35.6921 12.4779L35.9017 8.11122L34.2229 4.4387L36.0312 5.41248L36.2408 1.04584L37.1488 6.01432L38.9572 6.98811Z" fill="#B10027"/>
<path d="M31.4107 16.806C39.2485 18.3176 46.1587 20.4665 50.9928 22.7095C53.4134 23.8328 55.2873 24.9677 56.4964 26.0405C57.7355 27.1398 58.1413 28.0486 57.9928 28.736C57.8443 29.4234 57.0942 30.1092 55.4982 30.6617C53.9409 31.2009 51.7462 31.5512 49.0534 31.6881C43.6758 31.9617 36.4271 31.3797 28.5893 29.868C20.7515 28.3563 13.8413 26.2075 9.00725 23.9644C6.58665 22.8412 4.71275 21.7062 3.50357 20.6334C2.26446 19.5341 1.85874 18.6253 2.00723 17.9379C2.15571 17.2505 2.90584 16.5647 4.50176 16.0122C6.05913 15.473 8.25383 15.1228 10.9466 14.9858C16.3242 14.7122 23.5729 15.2943 31.4107 16.806Z" stroke="#B10027"/>
<path fill-rule="evenodd" clip-rule="evenodd" d="M29.88 22.6391L28.9594 22.8344L29.0174 22.863L24.6219 31.7867L24.5613 31.7568L24.661 32.0866L28.4245 35.1191L30.2758 36.0899C30.5204 36.2182 30.6147 36.5204 30.4864 36.765C30.3582 37.0095 30.056 37.1038 29.8114 36.9756L16.498 29.994C16.2535 29.8658 16.1592 29.5636 16.2874 29.319C16.4157 29.0744 16.7179 28.9802 16.9625 29.1084L18.752 30.0468L23.3854 31.4164L23.7292 31.3359L28.1203 22.4211L28.1945 22.4577L27.9697 21.6532L23.8456 11.4888L40.5764 21.276L29.88 22.6391Z" fill="#B4CED4"/>
<path d="M29.4079 22.1408C29.0431 22.1887 28.6637 21.9099 28.4725 21.4534L26.2115 16.0559C25.9805 15.5044 26.332 14.9472 26.7728 15.1663V15.1663C26.8354 15.1974 26.9002 15.2133 26.964 15.2133L28.2007 15.2133C28.4397 15.2133 28.6818 15.3479 28.8671 15.5837L29.3688 16.2222C29.4758 16.3584 29.603 16.4624 29.7394 16.525L31.6293 17.3934C31.8568 17.498 32.0496 17.7292 32.152 18.0205V18.0205C32.312 18.4754 32.6809 18.7602 33.0312 18.6993L34.071 18.5185C34.2975 18.4791 34.5395 18.5678 34.7402 18.7637L35.4724 19.4784C35.5841 19.5874 35.7098 19.6644 35.8399 19.7034L37.3797 20.1654V20.1654C37.7583 20.3406 37.765 21.044 37.3885 21.0934L29.4079 22.1408Z" fill="#B10027"/>
</svg>
