<svg width="473" height="244" viewBox="0 0 473 244" fill="none" xmlns="http://www.w3.org/2000/svg">
<path fill-rule="evenodd" clip-rule="evenodd" d="M0 138.441L9 135.88C18 134.173 36 130.758 54 135.88C71.5 141.856 89.5 156.369 107.5 159.783C125.5 164.052 143.5 156.369 161.5 159.783C179 164.052 197 178.564 206 186.248C206 186.248 213.056 189.117 215 193.077C216.91 196.967 215 197.175 215 197.175H206C197 197.175 179 193.077 161.5 193.077C143.5 193.077 125.5 197.175 107.5 197.175C89.5 197.175 71.5 203.675 54 203.675C36 203.675 18 197.175 9 197.175H0V138.441Z" fill="#A1C181"/>
<g filter="url(#filter0_d_15_12)">
<circle cx="255.5" cy="141.675" r="93.5" fill="#FCCA46"/>
</g>
<path fill-rule="evenodd" clip-rule="evenodd" d="M190.113 65.2656C194.825 65.3883 201.308 68.7155 201.308 68.7155C212.504 71.4755 234.896 77.6853 257.287 72.8554C279.056 68.7155 301.448 53.5359 323.839 49.396C346.231 44.5661 368.622 50.7759 391.013 44.5661C412.783 39.0462 435.174 21.1067 446.37 12.1369C446.37 12.1369 452.731 6.29557 457.566 3.16708C492.293 -19.3048 457.566 85.175 457.566 85.175H446.37C435.174 85.175 412.783 85.175 391.013 85.175C368.622 85.175 346.231 96.175 323.839 96.175C301.448 96.175 279.056 85.175 257.287 85.175C234.896 85.175 212.504 85.175 201.308 85.175H190.113C190.113 85.175 176.359 64.9076 190.113 65.2656Z" fill="#A1C181"/>
<path fill-rule="evenodd" clip-rule="evenodd" d="M269.533 126.869L264.411 126.021C263.566 125.881 262.82 125.357 262.337 124.565C261.855 123.772 261.675 122.775 261.837 121.794C262 120.813 262.491 119.927 263.203 119.333C263.916 118.738 264.791 118.482 265.636 118.622L283.326 121.55C283.562 121.589 283.807 121.551 284.032 121.44C284.257 121.329 284.454 121.149 284.6 120.921L285.39 119.692C285.537 119.464 285.734 119.284 285.959 119.173C286.184 119.062 286.428 119.023 286.665 119.062L289.042 119.456C289.253 119.49 289.45 119.586 289.617 119.732C289.784 119.879 289.914 120.073 289.996 120.297C290.079 120.52 290.111 120.767 290.089 121.014C290.067 121.261 289.993 121.501 289.873 121.713L285.917 128.66C285.774 128.91 285.573 129.11 285.338 129.235C285.104 129.36 284.845 129.404 284.596 129.363L279.673 128.548C279.465 128.513 279.25 128.539 279.048 128.622C278.845 128.705 278.661 128.843 278.511 129.024C278.361 129.204 278.25 129.423 278.188 129.659C278.126 129.896 278.115 130.144 278.155 130.381L278.75 133.914C278.789 134.151 278.778 134.398 278.716 134.635C278.653 134.871 278.543 135.089 278.393 135.27C278.244 135.45 278.06 135.588 277.857 135.671C277.655 135.754 277.441 135.78 277.233 135.746L274.63 135.315C274.439 135.283 274.259 135.202 274.103 135.078C273.946 134.953 273.818 134.788 273.727 134.595L270.436 127.589C270.345 127.396 270.217 127.231 270.061 127.107C269.904 126.982 269.724 126.901 269.533 126.869ZM279.898 119.463L273.845 118.46L276.967 115.024C277.116 114.86 277.295 114.736 277.489 114.663C277.683 114.589 277.887 114.568 278.084 114.601L280.483 114.998C280.7 115.034 280.903 115.134 281.072 115.288C281.241 115.443 281.371 115.646 281.45 115.879C281.529 116.113 281.553 116.368 281.521 116.622C281.489 116.875 281.402 117.119 281.267 117.328L279.898 119.463Z" fill="#619B8A"/>
<defs>
<filter id="filter0_d_15_12" x="158" y="48.175" width="195" height="195" filterUnits="userSpaceOnUse" color-interpolation-filters="sRGB">
<feFlood flood-opacity="0" result="BackgroundImageFix"/>
<feColorMatrix in="SourceAlpha" type="matrix" values="0 0 0 0 0 0 0 0 0 0 0 0 0 0 0 0 0 0 127 0" result="hardAlpha"/>
<feOffset dy="4"/>
<feGaussianBlur stdDeviation="2"/>
<feComposite in2="hardAlpha" operator="out"/>
<feColorMatrix type="matrix" values="0 0 0 0 0 0 0 0 0 0 0 0 0 0 0 0 0 0 0.25 0"/>
<feBlend mode="normal" in2="BackgroundImageFix" result="effect1_dropShadow_15_12"/>
<feBlend mode="normal" in="SourceGraphic" in2="effect1_dropShadow_15_12" result="shape"/>
</filter>
</defs>
</svg>
