<svg width="430" height="932" viewBox="0 0 430 932" fill="none" xmlns="http://www.w3.org/2000/svg">
<g clip-path="url(#clip0_6_29)">
<rect width="430" height="932" fill="url(#paint0_linear_6_29)"/>
<path fill-rule="evenodd" clip-rule="evenodd" d="M-436 616.006L-423.205 594.865C-410.41 575.646 -384.82 533.364 -359.229 542.974C-333.639 550.661 -308.049 608.318 -282.459 594.865C-256.869 583.334 -231.278 500.692 -205.688 464.176C-182.23 425.738 -156.64 435.348 -131.05 454.567C-105.46 475.708 -79.8685 488.565 -54.2783 488.565C-28.6881 488.565 -3.099 475.708 22.4912 471.864C48.0814 468.02 62.4922 504.536 88.0824 529.521C113.673 554.505 137.215 529.167 160.316 542.974C207.012 570.881 205.782 384.578 252.803 430.243C289.805 466.178 286.311 526.574 304.255 556.367C327.441 594.865 352.049 495.808 404.212 504.536C432.345 509.244 478.205 493.005 491 504.536L480.982 542.974L480.983 930H468.188C455.393 930 429.803 930 404.213 930C378.623 930 353.032 930 327.442 930C301.852 930 276.262 930 252.804 930C227.214 930 201.624 930 176.034 930C150.443 930 124.853 930 99.2629 930C73.6727 930 48.0825 930 22.4923 930C-3.09792 930 -28.6881 930 -54.2783 930C-79.8685 930 -105.459 930 -131.049 930C-156.639 930 -182.229 930 -207.82 930C-231.277 930 -256.867 930 -282.458 930C-308.048 930 -333.638 930 -359.228 930C-384.819 930 -410.409 930 -423.204 930H-435.999L-436 616.006Z" fill="#619B8A"/>
<path d="M113.5 583C47.5 604.833 -100.4 598 -108 602L-94 944C89.6667 947.167 459.5 953.8 469.5 955C479.5 956.2 473.667 682 469.5 583C469.5 583 397 564.33 375.5 567C354 569.67 341.7 597.805 292.5 602C237.332 606.704 179.5 561.167 113.5 583Z" fill="#FCCA46"/>
<path d="M198.444 645.088C117.252 580.774 -44.5682 698.695 -60.9194 709.646C-77.2705 720.598 -23.2045 992 -23.2045 992H625.204L645 762.92C645 762.92 279.635 709.402 198.444 645.088Z" fill="#A1C181"/>
<path d="M107.5 798C24.4215 808.431 -107 721.396 -107 721.396V989H467V721.396C467 721.396 441.194 638.317 368.915 651.397C283.296 666.89 193.458 787.207 107.5 798Z" fill="#FE7F2D"/>
<path fill-rule="evenodd" clip-rule="evenodd" d="M0 224.266L9 221.705C18 219.998 36 216.583 54 221.705C71.5 227.681 89.5 242.194 107.5 245.608C125.5 249.877 143.5 242.194 161.5 245.608C179 249.877 197 264.389 206 272.073C206 272.073 213.056 274.942 215 278.902C216.91 282.792 215 283 215 283H206C197 283 179 278.902 161.5 278.902C143.5 278.902 125.5 283 107.5 283C89.5 283 71.5 289.5 54 289.5C36 289.5 18 283 9 283H0V224.266Z" fill="#A1C181"/>
<g filter="url(#filter0_d_6_29)">
<circle cx="255.5" cy="227.5" r="93.5" fill="#FCCA46"/>
</g>
<path fill-rule="evenodd" clip-rule="evenodd" d="M190.113 151.091C194.825 151.213 201.308 154.541 201.308 154.541C212.504 157.3 234.896 163.51 257.287 158.68C279.056 154.541 301.448 139.361 323.839 135.221C346.231 130.391 368.622 136.601 391.013 130.391C412.783 124.871 435.174 106.932 446.37 97.9619C446.37 97.9619 452.731 92.1206 457.566 88.9921C492.293 66.5202 457.566 171 457.566 171H446.37C435.174 171 412.783 171 391.013 171C368.622 171 346.231 182 323.839 182C301.448 182 279.056 171 257.287 171C234.896 171 212.504 171 201.308 171H190.113C190.113 171 176.359 150.733 190.113 151.091Z" fill="#A1C181"/>
<path d="M124.778 813.672C129.727 815.952 138.8 811.647 138.8 811.647C118.999 791.376 108 763 108 763C108 763 97.0006 791.376 77.1998 811.647C77.1998 811.647 86.2722 815.953 91.2228 813.672C91.2228 813.672 86.2722 831.155 64 854.213C83.7971 859.278 98.6475 850.917 98.6475 850.917V876H105.802H110.198H117.353V850.917C117.353 850.917 132.203 859.278 152 854.213C129.727 831.155 124.778 813.672 124.778 813.672Z" fill="#FE7F2D"/>
<path d="M97.7562 810.869C103.437 814.328 113.85 807.797 113.85 807.797C91.1235 777.046 78.4999 734 78.4999 734C78.4999 734 65.8757 777.046 43.1498 807.797C43.1498 807.797 53.5624 814.328 59.2443 810.869C59.2443 810.869 53.5624 837.39 28 872.369C50.7217 880.052 67.7659 867.368 67.7659 867.368V905.419H75.977H81.0227H89.2341V867.368C89.2341 867.368 106.278 880.052 129 872.369C103.437 837.39 97.7562 810.869 97.7562 810.869Z" fill="#FE7F2D"/>
<path d="M395.942 608.928C398.876 610.703 404.712 608.268 404.712 608.268C393.576 593.693 388.316 574.123 388.316 574.123C388.316 574.123 379.989 592.599 366.665 605.203C366.665 605.203 372.036 608.541 375.217 607.258C375.217 607.258 371.215 618.732 356.213 633.082C368.167 637.463 377.791 632.596 377.791 632.596L376.436 649.412L380.855 649.768L383.57 649.987L387.989 650.343L389.344 633.527C389.344 633.527 398.065 639.871 410.566 637.461C398.055 620.895 395.942 608.928 395.942 608.928Z" fill="#FE7F2D"/>
<path d="M343.345 629.634C345.715 629.935 348.743 626.733 348.743 626.733C337.529 620.6 328.643 609.624 328.643 609.624C328.643 609.624 328.566 623.746 323.645 635.542C323.645 635.542 328.009 636.149 329.673 634.433C329.673 634.433 330.369 642.872 324.873 656.255C333.726 655.664 338.479 649.842 338.479 649.842L342.372 660.935L345.287 659.912L347.078 659.284L349.994 658.26L346.1 647.167C346.1 647.167 353.449 648.741 360.729 643.67C348.075 636.658 343.345 629.634 343.345 629.634Z" fill="#FE7F2D"/>
<path d="M74.5232 609.266C76.897 609.775 80.3593 606.94 80.3593 606.94C69.6953 599.956 61.9789 588.478 61.9789 588.478C61.9789 588.478 60.2066 602.195 53.7889 613.209C53.7889 613.209 58.1531 614.197 60.0497 612.681C60.0497 612.681 59.7454 620.946 52.5537 633.449C61.6234 633.683 67.1532 628.46 67.1532 628.46L69.7804 639.596L72.8663 638.868L74.7626 638.42L77.8487 637.692L75.2214 626.556C75.2214 626.556 82.5027 628.757 90.5115 624.494C78.4894 616.524 74.5232 609.266 74.5232 609.266Z" fill="#A1C181"/>
<path d="M111.97 607.802C113.573 608.529 116.399 606.936 116.399 606.936C109.844 600.182 105.981 590.527 105.981 590.527C105.981 590.527 102.854 600.445 96.8261 607.673C96.8261 607.673 99.7648 609.049 101.308 608.203C101.308 608.203 99.9622 614.292 93.1847 622.511C99.541 624.021 104.151 620.96 104.151 620.96L104.477 629.611L106.75 629.525L108.147 629.473L110.42 629.387L110.095 620.736C110.095 620.736 114.922 623.442 121.147 621.458C113.77 613.772 111.97 607.802 111.97 607.802Z" fill="#A1C181"/>
<path d="M232.079 668.076C234.611 669.024 239.25 667.234 239.25 667.234C229.124 658.803 223.5 647 223.5 647C223.5 647 217.875 658.803 207.75 667.234C207.75 667.234 212.389 669.025 214.921 668.076C214.921 668.076 212.389 675.348 201 684.938C211.124 687.045 218.717 683.567 218.717 683.567V694H222.376H224.624H228.283V683.567C228.283 683.567 235.876 687.045 246 684.938C234.611 675.348 232.079 668.076 232.079 668.076Z" fill="#A1C181"/>
<path d="M238.151 672.151C240.851 673.508 245.8 670.946 245.8 670.946C234.999 658.885 229 642 229 642C229 642 223 658.885 212.2 670.946C212.2 670.946 217.148 673.508 219.849 672.151C219.849 672.151 217.148 682.554 205 696.274C215.798 699.288 223.899 694.313 223.899 694.313V709.238H227.801H230.199H234.101V694.313C234.101 694.313 242.202 699.288 253 696.274C240.851 682.554 238.151 672.151 238.151 672.151Z" fill="#A1C181"/>
<path d="M405.381 516.592C408.008 517.231 412.399 514.897 412.399 514.897C401.336 507.74 394.338 496.697 394.338 496.697C394.338 496.697 390.168 509.088 381.126 518.672C381.126 518.672 385.947 519.894 388.346 518.649C388.346 518.649 386.704 526.171 376.547 537.058C386.85 537.936 393.972 533.573 393.972 533.573L395.223 543.931L398.855 543.492L401.086 543.223L404.719 542.785L403.468 532.427C403.468 532.427 411.424 534.969 421.222 531.665C408.766 523.508 405.381 516.592 405.381 516.592Z" fill="#619B8A"/>
<path d="M414.903 509.968C417.254 510.453 420.428 507.364 420.428 507.364C409.53 500.197 401.186 488.193 401.186 488.193C401.186 488.193 400.438 502.794 394.967 514.633C394.967 514.633 399.294 515.581 401.034 513.928C401.034 513.928 401.329 522.708 395.21 536.146C404.07 536.184 409.089 530.512 409.089 530.512L412.446 542.271L415.403 541.426L417.22 540.908L420.177 540.063L416.82 528.304C416.82 528.304 424.077 530.471 431.581 525.761C419.289 517.58 414.903 509.968 414.903 509.968Z" fill="#619B8A"/>
<path d="M226.448 571.114C228.027 572.189 231.391 571.149 231.391 571.149C225.689 562.897 223.469 552.242 223.469 552.242C223.469 552.242 218.109 561.715 210.166 567.84C210.166 567.84 213.054 569.854 214.886 569.311C214.886 569.311 212.213 575.245 203.264 582.226C209.805 585.086 215.384 582.919 215.384 582.919L213.997 591.814L216.462 592.199L217.977 592.435L220.442 592.819L221.829 583.924C221.829 583.924 226.484 587.687 233.586 586.954C227.186 577.58 226.448 571.114 226.448 571.114Z" fill="#FCCA46"/>
<path d="M280.207 588.762C281.446 589.381 283.716 588.212 283.716 588.212C278.761 582.706 276.009 575 276.009 575C276.009 575 273.257 582.706 268.303 588.212C268.303 588.212 270.573 589.381 271.811 588.762C271.811 588.762 270.573 593.51 265 599.772C269.953 601.147 273.669 598.876 273.669 598.876V605.688H275.459H276.559H278.349V598.876C278.349 598.876 282.065 601.147 287.018 599.772C281.446 593.51 280.207 588.762 280.207 588.762Z" fill="#FCCA46"/>
<path d="M194.321 566.459C195.359 567.218 197.62 566.499 197.62 566.499C193.936 560.687 192.61 553.2 192.61 553.2C192.61 553.2 188.893 559.833 183.5 564.108C183.5 564.108 185.398 565.531 186.629 565.156C186.629 565.156 184.758 569.314 178.681 574.186C183.005 576.215 186.762 574.711 186.762 574.711L185.705 580.952L187.345 581.229L188.353 581.4L189.993 581.678L191.049 575.437C191.049 575.437 194.101 578.094 198.853 577.602C194.719 571.001 194.321 566.459 194.321 566.459Z" fill="#FCCA46"/>
<path d="M111.803 532.964C112.384 533.367 113.605 532.912 113.605 532.912C111.488 529.735 110.629 525.565 110.629 525.565C110.629 525.565 108.72 529.371 105.854 531.892C105.854 531.892 106.916 532.647 107.581 532.409C107.581 532.409 106.635 534.784 103.406 537.656C105.803 538.695 107.826 537.766 107.826 537.766L107.362 541.292L108.262 541.41L108.816 541.483L109.716 541.601L110.18 538.076C110.18 538.076 111.894 539.497 114.478 539.113C112.102 535.503 111.803 532.964 111.803 532.964Z" fill="#619B8A"/>
<path d="M156 532.301C156.57 532.719 157.803 532.296 157.803 532.296C155.77 529.065 155.021 524.873 155.021 524.873C155.021 524.873 153.013 528.628 150.082 531.073C150.082 531.073 151.123 531.856 151.794 531.635C151.794 531.635 150.786 533.985 147.483 536.771C149.852 537.873 151.899 536.997 151.899 536.997L151.343 540.51L152.24 540.652L152.791 540.739L153.688 540.881L154.244 537.369C154.244 537.369 155.92 538.834 158.514 538.518C156.233 534.847 156 532.301 156 532.301Z" fill="#619B8A"/>
<path d="M127.422 528.508C128.331 528.843 129.797 527.82 129.797 527.82C125.897 524.326 123.325 519.081 123.325 519.081C123.325 519.081 122.095 524.792 119.152 529.123C119.152 529.123 120.822 529.763 121.623 529.218C121.623 529.218 121.181 532.697 117.877 537.619C121.418 538.178 123.787 536.25 123.787 536.25L124.379 541.092L125.616 540.94L126.375 540.847L127.612 540.696L127.019 535.854C127.019 535.854 129.783 537.154 133.084 535.757C128.691 531.778 127.422 528.508 127.422 528.508Z" fill="#619B8A"/>
<path fill-rule="evenodd" clip-rule="evenodd" d="M155.274 403.694L160.396 402.846C161.241 402.706 161.987 402.182 162.47 401.39C162.952 400.597 163.132 399.6 162.97 398.619C162.807 397.638 162.316 396.752 161.604 396.158C160.891 395.563 160.016 395.307 159.172 395.447L141.481 398.375C141.245 398.414 141 398.376 140.775 398.265C140.55 398.154 140.353 397.974 140.207 397.746L139.417 396.517C139.27 396.289 139.074 396.109 138.848 395.998C138.623 395.887 138.379 395.848 138.142 395.887L135.765 396.281C135.554 396.315 135.357 396.41 135.19 396.557C135.023 396.704 134.893 396.898 134.811 397.122C134.728 397.345 134.697 397.592 134.718 397.839C134.74 398.086 134.814 398.326 134.935 398.538L138.89 405.485C139.033 405.735 139.234 405.935 139.469 406.06C139.703 406.185 139.962 406.229 140.211 406.188L145.134 405.373C145.342 405.338 145.557 405.364 145.759 405.447C145.962 405.53 146.146 405.668 146.296 405.849C146.446 406.029 146.557 406.248 146.619 406.484C146.681 406.721 146.692 406.969 146.652 407.206L146.058 410.739C146.018 410.976 146.029 411.223 146.092 411.46C146.154 411.696 146.264 411.914 146.414 412.095C146.564 412.275 146.748 412.413 146.95 412.496C147.152 412.579 147.367 412.605 147.575 412.571L150.177 412.14C150.368 412.108 150.548 412.027 150.705 411.903C150.861 411.778 150.989 411.613 151.08 411.42L154.372 404.414C154.462 404.221 154.59 404.056 154.747 403.932C154.903 403.807 155.083 403.726 155.274 403.694ZM144.909 396.288L150.962 395.285L147.84 391.849C147.691 391.685 147.512 391.561 147.318 391.488C147.125 391.414 146.921 391.393 146.723 391.426L144.324 391.823C144.107 391.859 143.904 391.959 143.735 392.113C143.566 392.268 143.436 392.471 143.357 392.704C143.279 392.938 143.254 393.193 143.286 393.447C143.318 393.7 143.405 393.943 143.54 394.153L144.909 396.288Z" fill="#619B8A"/>
<path fill-rule="evenodd" clip-rule="evenodd" d="M269.533 212.694L264.411 211.846C263.566 211.706 262.82 211.182 262.337 210.39C261.855 209.597 261.675 208.6 261.837 207.619C262 206.638 262.491 205.752 263.203 205.158C263.916 204.563 264.791 204.307 265.636 204.447L283.326 207.375C283.562 207.414 283.807 207.376 284.032 207.265C284.257 207.154 284.454 206.974 284.6 206.746L285.39 205.517C285.537 205.289 285.734 205.109 285.959 204.998C286.184 204.887 286.428 204.848 286.665 204.887L289.042 205.281C289.253 205.316 289.45 205.411 289.617 205.557C289.784 205.704 289.914 205.898 289.996 206.122C290.079 206.346 290.111 206.592 290.089 206.839C290.067 207.086 289.993 207.326 289.873 207.538L285.917 214.485C285.774 214.735 285.573 214.935 285.338 215.06C285.104 215.185 284.845 215.229 284.596 215.188L279.673 214.373C279.465 214.338 279.25 214.364 279.048 214.447C278.845 214.53 278.661 214.668 278.511 214.849C278.361 215.029 278.25 215.248 278.188 215.484C278.126 215.721 278.115 215.969 278.155 216.206L278.75 219.739C278.789 219.976 278.778 220.223 278.716 220.46C278.653 220.696 278.543 220.914 278.393 221.095C278.244 221.275 278.06 221.413 277.857 221.496C277.655 221.579 277.441 221.605 277.233 221.571L274.63 221.14C274.439 221.109 274.259 221.027 274.103 220.903C273.946 220.778 273.818 220.613 273.727 220.42L270.436 213.414C270.345 213.221 270.217 213.056 270.061 212.932C269.904 212.807 269.724 212.726 269.533 212.694ZM279.898 205.288L273.845 204.285L276.967 200.849C277.116 200.685 277.295 200.561 277.489 200.488C277.683 200.414 277.887 200.393 278.084 200.426L280.483 200.823C280.7 200.859 280.903 200.959 281.072 201.113C281.241 201.268 281.371 201.471 281.45 201.704C281.529 201.938 281.553 202.193 281.521 202.447C281.489 202.7 281.402 202.944 281.267 203.153L279.898 205.288Z" fill="#619B8A"/>
</g>
<defs>
<filter id="filter0_d_6_29" x="158" y="134" width="195" height="195" filterUnits="userSpaceOnUse" color-interpolation-filters="sRGB">
<feFlood flood-opacity="0" result="BackgroundImageFix"/>
<feColorMatrix in="SourceAlpha" type="matrix" values="0 0 0 0 0 0 0 0 0 0 0 0 0 0 0 0 0 0 127 0" result="hardAlpha"/>
<feOffset dy="4"/>
<feGaussianBlur stdDeviation="2"/>
<feComposite in2="hardAlpha" operator="out"/>
<feColorMatrix type="matrix" values="0 0 0 0 0 0 0 0 0 0 0 0 0 0 0 0 0 0 0.25 0"/>
<feBlend mode="normal" in2="BackgroundImageFix" result="effect1_dropShadow_6_29"/>
<feBlend mode="normal" in="SourceGraphic" in2="effect1_dropShadow_6_29" result="shape"/>
</filter>
<linearGradient id="paint0_linear_6_29" x1="215" y1="-125.5" x2="215" y2="772" gradientUnits="userSpaceOnUse">
<stop offset="0.0193461" stop-color="#619B8A"/>
<stop offset="0.432292" stop-color="#FCCA46"/>
<stop offset="0.984071" stop-color="#619B8A"/>
</linearGradient>
<clipPath id="clip0_6_29">
<rect width="430" height="932" fill="white"/>
</clipPath>
</defs>
</svg>
